{
	"asset":{
		"generator":"Khronos glTF Blender I/O v3.6.27",
		"version":"2.0"
	},
	"scene":0,
	"scenes":[
		{
			"name":"Scene",
			"nodes":[
				0,
				1,
				2,
				3,
				4,
				5
			]
		}
	],
	"nodes":[
		{
			"mesh":0,
			"name":"Cube"
		},
		{
			"mesh":1,
			"name":"Text"
		},
		{
			"mesh":2,
			"name":"Text.001"
		},
		{
			"mesh":3,
			"name":"Text.002"
		},
		{
			"mesh":4,
			"name":"Text.003"
		},
		{
			"mesh":5,
			"name":"Cube.001"
		}
	],
	"materials":[
		{
			"doubleSided":true,
			"name":"Material.003",
			"pbrMetallicRoughness":{
				"baseColorFactor":[
					0.8000000715255737,
					0.0009048867505043745,
					0.27795928716659546,
					1
				],
				"roughnessFactor":0.16438356041908264
			}
		},
		{
			"doubleSided":true,
			"emissiveFactor":[
				1,
				1,
				1
			],
			"name":"Material.002",
			"pbrMetallicRoughness":{
				"metallicFactor":0,
				"roughnessFactor":0.07191780209541321
			}
		}
	],
	"meshes":[
		{
			"name":"Cube",
			"primitives":[
				{
					"attributes":{
						"POSITION":0,
						"NORMAL":1,
						"TEXCOORD_0":2
					},
					"indices":3,
					"material":0
				}
			]
		},
		{
			"name":"Text",
			"primitives":[
				{
					"attributes":{
						"POSITION":4,
						"NORMAL":5,
						"TEXCOORD_0":6
					},
					"indices":7,
					"material":1
				}
			]
		},
		{
			"name":"Text.001",
			"primitives":[
				{
					"attributes":{
						"POSITION":8,
						"NORMAL":9,
						"TEXCOORD_0":10
					},
					"indices":11,
					"material":1
				}
			]
		},
		{
			"name":"Text.002",
			"primitives":[
				{
					"attributes":{
						"POSITION":12,
						"NORMAL":13,
						"TEXCOORD_0":14
					},
					"indices":15,
					"material":1
				}
			]
		},
		{
			"name":"Text.003",
			"primitives":[
				{
					"attributes":{
						"POSITION":16,
						"NORMAL":17,
						"TEXCOORD_0":18
					},
					"indices":19,
					"material":1
				}
			]
		},
		{
			"name":"Cube.001",
			"primitives":[
				{
					"attributes":{
						"POSITION":20,
						"NORMAL":21,
						"TEXCOORD_0":22
					},
					"indices":23,
					"material":0
				}
			]
		}
	],
	"accessors":[
		{
			"bufferView":0,
			"componentType":5126,
			"count":586,
			"max":[
				0.09140085428953171,
				1,
				0.5896801352500916
			],
			"min":[
				-0.07237502187490463,
				-1,
				-0.5896801352500916
			],
			"type":"VEC3"
		},
		{
			"bufferView":1,
			"componentType":5126,
			"count":586,
			"type":"VEC3"
		},
		{
			"bufferView":2,
			"componentType":5126,
			"count":586,
			"type":"VEC2"
		},
		{
			"bufferView":3,
			"componentType":5123,
			"count":1500,
			"type":"SCALAR"
		},
		{
			"bufferView":4,
			"componentType":5126,
			"count":9185,
			"max":[
				-0.000984371523372829,
				1.6469441652297974,
				1.4819176197052002
			],
			"min":[
				-0.0009845676831901073,
				-0.3120321035385132,
				-0.6138968467712402
			],
			"type":"VEC3"
		},
		{
			"bufferView":5,
			"componentType":5126,
			"count":9185,
			"type":"VEC3"
		},
		{
			"bufferView":6,
			"componentType":5126,
			"count":9185,
			"type":"VEC2"
		},
		{
			"bufferView":7,
			"componentType":5123,
			"count":27039,
			"type":"SCALAR"
		},
		{
			"bufferView":8,
			"componentType":5126,
			"count":4329,
			"max":[
				-0.1687197983264923,
				0.9589372277259827,
				-0.5803220868110657
			],
			"min":[
				-1.635379672050476,
				0.22269970178604126,
				-0.5803223252296448
			],
			"type":"VEC3"
		},
		{
			"bufferView":9,
			"componentType":5126,
			"count":4329,
			"type":"VEC3"
		},
		{
			"bufferView":10,
			"componentType":5126,
			"count":4329,
			"type":"VEC2"
		},
		{
			"bufferView":11,
			"componentType":5123,
			"count":9528,
			"type":"SCALAR"
		},
		{
			"bufferView":12,
			"componentType":5126,
			"count":1720,
			"max":[
				0.0029126941226422787,
				-0.91926509141922,
				1.431767463684082
			],
			"min":[
				0.0029126382432878017,
				-0.9966055154800415,
				0.7193286418914795
			],
			"type":"VEC3"
		},
		{
			"bufferView":13,
			"componentType":5126,
			"count":1720,
			"type":"VEC3"
		},
		{
			"bufferView":14,
			"componentType":5126,
			"count":1720,
			"type":"VEC2"
		},
		{
			"bufferView":15,
			"componentType":5123,
			"count":5052,
			"type":"SCALAR"
		},
		{
			"bufferView":16,
			"componentType":5126,
			"count":9311,
			"max":[
				-0.2061905562877655,
				-0.30255407094955444,
				-0.5887632966041565
			],
			"min":[
				-1.0624135732650757,
				-0.9625183343887329,
				-0.588763415813446
			],
			"type":"VEC3"
		},
		{
			"bufferView":17,
			"componentType":5126,
			"count":9311,
			"type":"VEC3"
		},
		{
			"bufferView":18,
			"componentType":5126,
			"count":9311,
			"type":"VEC2"
		},
		{
			"bufferView":19,
			"componentType":5123,
			"count":17043,
			"type":"SCALAR"
		},
		{
			"bufferView":20,
			"componentType":5126,
			"count":304,
			"max":[
				-0.06335894763469696,
				0.6495652198791504,
				0.0716085284948349
			],
			"min":[
				-0.08521993458271027,
				0.475638747215271,
				-0.08049562573432922
			],
			"type":"VEC3"
		},
		{
			"bufferView":21,
			"componentType":5126,
			"count":304,
			"type":"VEC3"
		},
		{
			"bufferView":22,
			"componentType":5126,
			"count":304,
			"type":"VEC2"
		},
		{
			"bufferView":23,
			"componentType":5123,
			"count":1608,
			"type":"SCALAR"
		}
	],
	"bufferViews":[
		{
			"buffer":0,
			"byteLength":7032,
			"byteOffset":0,
			"target":34962
		},
		{
			"buffer":0,
			"byteLength":7032,
			"byteOffset":7032,
			"target":34962
		},
		{
			"buffer":0,
			"byteLength":4688,
			"byteOffset":14064,
			"target":34962
		},
		{
			"buffer":0,
			"byteLength":3000,
			"byteOffset":18752,
			"target":34963
		},
		{
			"buffer":0,
			"byteLength":110220,
			"byteOffset":21752,
			"target":34962
		},
		{
			"buffer":0,
			"byteLength":110220,
			"byteOffset":131972,
			"target":34962
		},
		{
			"buffer":0,
			"byteLength":73480,
			"byteOffset":242192,
			"target":34962
		},
		{
			"buffer":0,
			"byteLength":54078,
			"byteOffset":315672,
			"target":34963
		},
		{
			"buffer":0,
			"byteLength":51948,
			"byteOffset":369752,
			"target":34962
		},
		{
			"buffer":0,
			"byteLength":51948,
			"byteOffset":421700,
			"target":34962
		},
		{
			"buffer":0,
			"byteLength":34632,
			"byteOffset":473648,
			"target":34962
		},
		{
			"buffer":0,
			"byteLength":19056,
			"byteOffset":508280,
			"target":34963
		},
		{
			"buffer":0,
			"byteLength":20640,
			"byteOffset":527336,
			"target":34962
		},
		{
			"buffer":0,
			"byteLength":20640,
			"byteOffset":547976,
			"target":34962
		},
		{
			"buffer":0,
			"byteLength":13760,
			"byteOffset":568616,
			"target":34962
		},
		{
			"buffer":0,
			"byteLength":10104,
			"byteOffset":582376,
			"target":34963
		},
		{
			"buffer":0,
			"byteLength":111732,
			"byteOffset":592480,
			"target":34962
		},
		{
			"buffer":0,
			"byteLength":111732,
			"byteOffset":704212,
			"target":34962
		},
		{
			"buffer":0,
			"byteLength":74488,
			"byteOffset":815944,
			"target":34962
		},
		{
			"buffer":0,
			"byteLength":34086,
			"byteOffset":890432,
			"target":34963
		},
		{
			"buffer":0,
			"byteLength":3648,
			"byteOffset":924520,
			"target":34962
		},
		{
			"buffer":0,
			"byteLength":3648,
			"byteOffset":928168,
			"target":34962
		},
		{
			"buffer":0,
			"byteLength":2432,
			"byteOffset":931816,
			"target":34962
		},
		{
			"buffer":0,
			"byteLength":3216,
			"byteOffset":934248,
			"target":34963
		}
	],
	"buffers":[
		{
			"byteLength":937464,
			"uri":"data:application/octet-stream;base64,"
		}
	]
}
